{"title":"High Maintenance 2016 S01-S02 720p AMZN WEB-DL DD+5.1 H.264-monk","magnet":"magnet:?xt=urn:btih:6f34c3df9492636cfd4ae7021f0fbe5e38dde41a&dn=High+Maintenance+2016+S01-S02+720p+AMZN+WEB-DL+DD%2B5.1+H.264-monk&tr=udp%3A%2F%2Ftracker.leechers-paradise.org%3A6969&tr=udp%3A%2F%2Fzer0day.ch%3A1337&tr=udp%3A%2F%2Fopen.demonii.com%3A1337&tr=udp%3A%2F%2Ftracker.coppersurfer.tk%3A6969&tr=udp%3A%2F%2Fexodus.desync.com%3A6969","uploader":"__rick_","categoryP":"video","categoryS":"hd___tv_shows","size":"11486934948","seeders":"6","leechers":"14","description":"High Maintenance 2016 Season 1-2 S01-S02 720p AMZN WEB-DL DD+5.1 H.264-monkee [RiCK]\r\n\r\nA nameless cannabis delivery guy delivers his much-needed medication to stressed-out New Yorkers. \r\n\r\nHigh.Maintenance.2016.S02E10.Steve.720p.AMZN.WEB-DL.DDP5.1.H.264-monkee.mkv\r\nFile size                                : 636 MiB\r\nDuration                                 : 22 min 41 s\r\nOverall bit rate mode                    : Variable\r\nOverall bit rate                         : 3 918 kb/s\r\n\r\nVideo\r\nFormat                                   : AVC\r\nDuration                                 : 22 min 41 s\r\nBit rate mode                            : Variable\r\nBit rate                                 : 3 200 kb/s\r\nMaximum bit rate                         : 4 500 kb/s\r\nWidth                                    : 1 280 pixels\r\nHeight                                   : 720 pixels\r\nBits/(Pixel*Frame)                       : 0.145\r\nStream size                              : 519 MiB (82%)\r\n\r\nAudio\r\nID                                       : 2\r\nFormat                                   : E-AC-3\r\nFormat/Info                              : Enhanced Audio Coding 3\r\nFormat settings, Endianness              : Big\r\nCodec ID                                 : A_EAC3\r\nDuration                                 : 22 min 41 s\r\nBit rate mode                            : Constant\r\nBit rate                                 : 640 kb/s\r\nChannel(s)                               : 6 channels\r\nChannel positions                        : Front: L C R, Side: L R, LFE\r\nSampling rate                            : 48.0 kHz\r\nFrame rate                               : 187.500 FPS (256 spf)\r\nCompression mode                         : Lossy\r\nDelay relative to video                  : 3 ms\r\nStream size                              : 104 MiB (16%)\r\nLanguage                                 : English\r\nDefault                                  : Yes\r\nForced                                   : No\r\nStatistics Tags Issue                    : mkvmerge v21.0.0 (&apos;Tardigrades Will Inherit The Earth&apos;) 64-bit 2018-03-24 16:09:07 / mkvmerge v21.0.0 (&apos;Tardigrades Will Inherit The Earth&apos;) 64-bit \r\nFromStats_BitRate                        : 640000\r\nFromStats_Duration                       : 00:22:41.184000000\r\nFromStats_FrameCount                     : 42537\r\nFromStats_StreamSize                     : 108894720\r\n\r\nScreenshots:\r\n <a href=\"\nhttps://imgpile.com/i/nWF96M\" rel=\"nofollow\" target=\"_NEW\">\nhttps://imgpile.com/i/nWF96M</a> <a href=\"\nhttps://imgpile.com/i/nWFh8k\" rel=\"nofollow\" target=\"_NEW\">\nhttps://imgpile.com/i/nWFh8k</a> <a href=\"\nhttps://imgpile.com/i/nWFdCu\" rel=\"nofollow\" target=\"_NEW\">\nhttps://imgpile.com/i/nWFdCu</a>","last_updated":"2018-04-14T18:26:34.898Z","parsed":{"xt":"urn:btih:6f34c3df9492636cfd4ae7021f0fbe5e38dde41a","dn":"High Maintenance 2016 S01-S02 720p AMZN WEB-DL DD 5.1 H.264-monk","tr":["udp://exodus.desync.com:6969","udp://open.demonii.com:1337","udp://tracker.coppersurfer.tk:6969","udp://tracker.leechers-paradise.org:6969","udp://zer0day.ch:1337"],"infoHash":"6f34c3df9492636cfd4ae7021f0fbe5e38dde41a","infoHashBuffer":{"type":"Buffer","data":[111,52,195,223,148,146,99,108,253,74,231,2,31,15,190,94,56,221,228,26]},"name":"High Maintenance 2016 S01-S02 720p AMZN WEB-DL DD 5.1 H.264-monk","announce":["udp://exodus.desync.com:6969","udp://open.demonii.com:1337","udp://tracker.coppersurfer.tk:6969","udp://tracker.leechers-paradise.org:6969","udp://zer0day.ch:1337"],"urlList":[]}}